# xmcd CD database file
#
# Track frame offsets:
#	150
#	28088
#	50000
#	65575
#	85662
#	108910
#	123737
#	141863
#	169795
#	180535
#	194877
#
# Disc length: 3399 seconds
#
# Revision: 1
# Processed by: cddbd v1.5.1PL0 Copyright (c) Steve Scherf et al.
# Submitted via: CDex 1.51
#
DISCID=a20d450b
DTITLE=franco saint de bakker - live at the AB
DYEAR=2004
DGENRE=Jazz
TTITLE0=Bernie's Tune
TTITLE1=Tang
TTITLE2=Powerhouse
TTITLE3=No one knows
TTITLE4=Angels and demons at play
TTITLE5=Breakfast Feud
TTITLE6=Solar Lottery
TTITLE7=Triplex-rated under siege of the v
TTITLE8=Fiat Lux
TTITLE9=Flèche d'or
TTITLE10=Air Raid
EXTD=YEAR: 2004
EXTT0=
EXTT1=
EXTT2=
EXTT3=
EXTT4=
EXTT5=
EXTT6=
EXTT7=
EXTT8=
EXTT9=
EXTT10=
PLAYORDER=
